<?xml version="1.0" encoding="UTF-8"?>
<!-- Generator: Adobe Illustrator 15.1.0, SVG Export Plug-In  -->
<!DOCTYPE svg PUBLIC "-//W3C//DTD SVG 1.1//EN" "http://www.w3.org/Graphics/SVG/1.1/DTD/svg11.dtd">
<svg version="1.1" xmlns="http://www.w3.org/2000/svg" xmlns:xlink="http://www.w3.org/1999/xlink" xmlns:a="http://ns.adobe.com/AdobeSVGViewerExtensions/3.0/" x="0px" y="0px" width="294px" height="79px" viewBox="0 0 294 69" overflow="visible" enable-background="new 0 0 294 99" xml:space="preserve">
<defs>
</defs>
<g>
	<defs>
		<rect id="SVGID_1_" width="294.344" height="98.508"/>
	</defs>
	<clipPath id="SVGID_2_">
		<use xlink:href="#SVGID_1_" overflow="visible"/>
	</clipPath>
	<path clip-path="url(#SVGID_2_)" fill="#C9D41F" d="M2.702,57.133C1.162,57.133,0,55.972,0,54.432v-0.42l6.553-37.459   C8.881,3.36,16.118,0.71,27.041,0.71c7.365,0,10.531,0.516,13.592,1.015c2.54,0.421,2.633,1.97,2.431,3.274l-0.783,4.566   c-0.411,2.251-1.993,2.721-3.247,2.721H24.557c-3.191,0-4.379,0.696-5.129,4.817l-1.023,5.819h17.364c0.386,0,1.559,0,2.307,0.895   c0.715,0.859,0.522,1.917,0.439,2.368l-0.921,5.108C37.19,33.53,35.607,34,34.351,34H16.438l-3.536,20.415   c-0.278,1.531-1.703,2.718-3.246,2.718H2.702z"/>
	<path clip-path="url(#SVGID_2_)" fill="#C9D41F" d="M43.147,57.133c-1.102,0-1.749-0.479-2.097-0.881   c-0.365-0.421-0.763-1.179-0.587-2.398l9.018-51.14C49.792,1.012,50.979,0,52.657,0h6.6c0.965,0,1.706,0.308,2.203,0.915   c0.503,0.612,0.66,1.413,0.467,2.379l-9.005,51.055c-0.421,2.303-1.959,2.784-3.175,2.784H43.147z"/>
	<path clip-path="url(#SVGID_2_)" fill="#4E4D4D" d="M128.46,70.486c-0.926,0-1.713-0.342-2.216-0.965   c-0.354-0.438-0.724-1.206-0.474-2.377l9.011-51.44c0.417-2.085,1.613-2.764,3.539-3.246c5.111-1.256,11.058-2.007,15.911-2.007   c10.351,0,16.529,6.01,16.529,16.078c0,1.317-0.132,2.865-0.394,4.6l-0.985,5.837c-2.266,13.592-9.738,20.201-22.846,20.201   c-1.756,0-3.887-0.132-5.925-0.36l-1.906,10.915c-0.124,0.69-0.499,2.765-3.303,2.765H128.46z M142.568,45.666   c1.891,0.197,4.126,0.322,5.4,0.322c4.678,0,7.368-3.026,8.465-9.526l0.981-5.81c0.288-1.583,0.432-2.989,0.432-4.2   c0-3.559-1.321-4.821-5.049-4.821c-2.073,0-4.492,0.141-6.088,0.341L142.568,45.666z"/>
	<path clip-path="url(#SVGID_2_)" fill="#4E4D4D" d="M188.729,57.167c-8.521,0-13.813-5.697-13.813-14.869   c0-1.741,0.183-3.848,0.545-6.261l0.91-5.386c2.14-12.836,10.494-20.2,22.921-20.2c4.854,0,10.53,0.753,15.186,2.015   c1.055,0.294,3.233,0.899,2.758,3.748l-6.566,37.587c-0.283,1.555-1.733,2.763-3.303,2.763h-6.037   c-0.864,0-1.621-0.336-2.132-0.949c-0.288-0.345-0.479-0.763-0.565-1.213C195.446,56.277,192.238,57.167,188.729,57.167    M197.859,21.631c-4.847,0-7.401,2.849-8.543,9.529l-1.133,6.349c-0.428,2.432-0.428,3.715-0.428,4.563   c0,3.276,1.324,3.916,3.612,3.916c2.24,0,4.884-0.857,8.063-2.619l3.76-21.464C201.724,21.742,199.684,21.631,197.859,21.631"/>
	<path clip-path="url(#SVGID_2_)" fill="#4E4D4D" d="M234.161,57.167c-0.857,0-8.533-0.045-13.989-1.565   c-2.179-0.668-2.407-2.23-2.222-3.426l0.836-4.568c0.394-2.153,1.983-2.476,2.896-2.476c0.179,0,0.371,0.012,0.582,0.037   c3.551,0.453,9.734,0.819,11.897,0.819c4.606,0,4.973-1.174,4.973-2.709c0-0.294,0-1.075-1.851-2.387l-7.904-5.416   c-4.108-2.814-6.845-5.939-6.845-12.041c0-8.13,6.518-12.984,17.436-12.984c4.787,0,9.534,0.564,13.729,1.632   c1.156,0.315,2.608,1.01,2.174,3.467l-0.754,4.298c-0.333,2.355-1.93,2.714-2.853,2.714c-0.172,0-0.359-0.012-0.562-0.037   c-1.918-0.283-7.48-0.894-11.734-0.894c-4.294,0-4.294,0.988-4.294,1.578c0,0.715,0,1.11,1.61,2.224l8.82,6.032   c4.317,2.95,6.241,6.267,6.241,10.757C252.348,51.44,245.38,57.167,234.161,57.167"/>
	<path clip-path="url(#SVGID_2_)" fill="#4E4D4D" d="M272.552,57.167c-0.857,0-8.533-0.045-13.988-1.565   c-2.175-0.668-2.406-2.229-2.223-3.423l0.838-4.573c0.389-2.151,1.981-2.474,2.895-2.474c0.18,0,0.374,0.012,0.584,0.037   c3.55,0.453,9.732,0.819,11.895,0.819c4.607,0,4.973-1.174,4.973-2.709c0-0.294,0-1.075-1.85-2.387l-7.903-5.416   c-4.108-2.814-6.845-5.937-6.845-12.041c0-8.13,6.518-12.984,17.435-12.984c4.787,0,9.535,0.564,13.729,1.632   c1.156,0.315,2.609,1.012,2.174,3.467l-0.753,4.298c-0.338,2.356-1.934,2.714-2.854,2.714c-0.173,0-0.359-0.012-0.562-0.037   c-1.917-0.283-7.477-0.894-11.734-0.894c-4.294,0-4.294,0.988-4.294,1.578c0,0.715,0,1.109,1.61,2.224l8.821,6.032   c4.317,2.95,6.242,6.267,6.242,10.757C290.741,51.44,283.771,57.167,272.552,57.167"/>
	<path clip-path="url(#SVGID_2_)" fill="#C9D41F" d="M94.933,13.212c0.482-2.724-1.335-5.324-4.059-5.806   c-2.724-0.483-5.324,1.334-5.806,4.059c-0.483,2.724,1.334,5.323,4.058,5.806C91.851,17.754,94.45,15.937,94.933,13.212"/>
	<path clip-path="url(#SVGID_2_)" fill="#C9D41F" d="M110.775,13.212c0.482-2.724-1.335-5.324-4.059-5.806   c-2.724-0.483-5.323,1.334-5.806,4.059c-0.483,2.724,1.335,5.323,4.059,5.806C107.693,17.754,110.293,15.937,110.775,13.212"/>
	<path clip-path="url(#SVGID_2_)" fill="#C9D41F" d="M91.587,51.316c-0.244,0-0.491-0.019-0.739-0.054   c-0.273-0.039-0.545-0.083-0.817-0.13c-1.668-0.29-3.323-0.729-4.92-1.307c-7.272-2.631-13.085-7.938-16.368-14.942   c-3.281-7.004-3.886-14.077-1.255-21.35c0.736-2.031,2.681-3.395,4.841-3.395c0.595,0,1.183,0.103,1.748,0.307   c1.295,0.467,2.327,1.411,2.91,2.655c0.583,1.245,0.647,2.642,0.18,3.935c-1.697,4.688-1.219,8.966,0.896,13.482   c2.115,4.513,5.861,7.932,10.55,9.629c1.174,0.424,2.421,0.737,3.709,0.929c1.363,0.195,2.568,0.905,3.386,1.998   c0.822,1.098,1.166,2.458,0.968,3.83C96.313,49.42,94.126,51.316,91.587,51.316"/>
	<path clip-path="url(#SVGID_2_)" fill="#C9D41F" d="M78.616,70.4c-2.833,0-5.128-2.296-5.128-5.128s2.295-5.128,5.128-5.128   l9.926,0.03c4.102,0,6.849-1.139,8.996-2.252c16.258-8.297,19.619-34.661,20.262-42.542c0.217-2.651,2.455-4.729,5.096-4.729   c0.153,0,0.306,0.006,0.462,0.02c1.36,0.112,2.604,0.75,3.494,1.798c0.89,1.048,1.318,2.379,1.206,3.749   c-0.965,11.823-5.411,40.446-25.81,50.855c-4.481,2.327-8.806,3.318-13.681,3.318L78.616,70.4z"/>
</g>
</svg>